# xmcd CD database file
#
# Track frame offsets:
#	150
#	19576
#	47937
#	74982
#	92887
#	119003
#	136898
#	159321
#	199988
#	220298
#	232553
#	248713
#
# Disc length: 3554 seconds
#
# Revision: 0
# Processed by: cddbd v1.4PL0 Copyright (c) Steve Scherf et al.
# Submitted via: CDex 1.50beta10
#
DISCID=ad0de00c
DTITLE=Various Artist - PBS easy street sessions - volume 3
DYEAR=2003
DGENRE=Jazz
TTITLE0=Chubby Rae and the Elevators - That Kinda Woman
TTITLE1=Deode - Tabasco
TTITLE2=Skazz - Fungloid
TTITLE3=The Steve Boyd Revue - Bad Revelation
TTITLE4=The Lloyd Spiegel Band - If I Killed You When I Met You
TTITLE5=The Broke - Tinker
TTITLE6=Aajinta - Sofia's Dream
TTITLE7=Frock - The Plan
TTITLE8=Yvette Johansson - Moonglow
TTITLE9=Hill Williams - A Beautiful Life
TTITLE10=Rory Ellis - Railway Parade
TTITLE11=Rootbound System - Last Train
EXTD=YEAR: 2003
EXTT0=
EXTT1=
EXTT2=
EXTT3=
EXTT4=
EXTT5=
EXTT6=
EXTT7=
EXTT8=
EXTT9=
EXTT10=
EXTT11=
PLAYORDER=
